<svg xmlns="http://www.w3.org/2000/svg" xmlns:xlink="http://www.w3.org/1999/xlink" width="500" zoomAndPan="magnify" viewBox="0 0 375 374.999991" height="500" preserveAspectRatio="xMidYMid meet" version="1.0"><defs><clipPath id="b7bfd61ef5"><path d="M 29.03125 4 L 310 4 L 310 312 L 29.03125 312 Z M 29.03125 4 " clip-rule="nonzero"/></clipPath><clipPath id="452d45e886"><path d="M 93 79 L 346.28125 79 L 346.28125 371 L 93 371 Z M 93 79 " clip-rule="nonzero"/></clipPath></defs><g clip-path="url(#b7bfd61ef5)"><path fill="#c41e3a" d="M 187.546875 4.480469 L 29.082031 95.96875 L 29.082031 99.800781 C 29.082031 158.25 29.082031 216.683594 29.082031 275.140625 L 29.082031 278.972656 L 85.382812 311.484375 L 85.382812 204.425781 L 309.621094 74.953125 L 187.558594 4.480469 Z M 85.371094 128.472656 L 187.535156 69.484375 L 197.007812 74.953125 L 85.371094 139.402344 Z M 85.371094 128.472656 " fill-opacity="1" fill-rule="nonzero"/></g><g clip-path="url(#452d45e886)"><path fill="#c41e3a" d="M 346.003906 138.027344 L 149.492188 251.484375 L 149.480469 241.433594 L 346.015625 127.964844 L 346.015625 95.96875 L 317.417969 79.460938 L 93.179688 208.933594 L 93.179688 315.992188 L 187.535156 370.460938 L 346.003906 278.960938 L 346.015625 213.945312 L 187.535156 305.449219 L 178.078125 299.988281 L 346.015625 203.027344 Z M 346.003906 138.027344 " fill-opacity="1" fill-rule="nonzero"/></g></svg>