<svg xmlns="http://www.w3.org/2000/svg" xmlns:xlink="http://www.w3.org/1999/xlink" width="500" zoomAndPan="magnify" viewBox="0 0 375 74.999997" height="100" preserveAspectRatio="xMidYMid meet" version="1.0"><defs><g/><clipPath id="eeec54ed36"><rect x="0" width="281" y="0" height="51"/></clipPath><clipPath id="1a3dd7e114"><path d="M 316.648438 7.5 L 334.832031 7.5 L 334.832031 25.6875 L 316.648438 25.6875 Z M 316.648438 7.5 " clip-rule="nonzero"/></clipPath><clipPath id="f3a67dfa49"><path d="M 325.742188 7.5 C 320.71875 7.5 316.648438 11.570312 316.648438 16.59375 C 316.648438 21.613281 320.71875 25.6875 325.742188 25.6875 C 330.761719 25.6875 334.832031 21.613281 334.832031 16.59375 C 334.832031 11.570312 330.761719 7.5 325.742188 7.5 Z M 325.742188 7.5 " clip-rule="nonzero"/></clipPath><clipPath id="3d3d2917c0"><path d="M 0.648438 0.5 L 18.832031 0.5 L 18.832031 18.6875 L 0.648438 18.6875 Z M 0.648438 0.5 " clip-rule="nonzero"/></clipPath><clipPath id="e334866f7a"><path d="M 9.742188 0.5 C 4.71875 0.5 0.648438 4.570312 0.648438 9.59375 C 0.648438 14.613281 4.71875 18.6875 9.742188 18.6875 C 14.761719 18.6875 18.832031 14.613281 18.832031 9.59375 C 18.832031 4.570312 14.761719 0.5 9.742188 0.5 Z M 9.742188 0.5 " clip-rule="nonzero"/></clipPath><clipPath id="6890033ed9"><rect x="0" width="19" y="0" height="19"/></clipPath></defs><g transform="matrix(1, 0, 0, 1, 39, 24)"><g clip-path="url(#eeec54ed36)"><g fill="#c41e3a" fill-opacity="1"><g transform="translate(1.128304, 42.045716)"><g><path d="M 35.5 -33.8125 L 35.5 -27.046875 L 8.453125 -27.046875 L 8.453125 -6.765625 L 28.734375 -6.765625 L 28.734375 -13.53125 L 15.21875 -13.53125 L 15.21875 -20.28125 L 35.5 -20.28125 L 35.5 -6.765625 C 35.5 -5.546875 35.195312 -4.421875 34.59375 -3.390625 C 33.988281 -2.367188 33.175781 -1.546875 32.15625 -0.921875 C 31.144531 -0.304688 30.003906 0 28.734375 0 L 8.453125 0 C 7.210938 0 6.078125 -0.300781 5.046875 -0.90625 C 4.023438 -1.507812 3.207031 -2.328125 2.59375 -3.359375 C 1.988281 -4.390625 1.6875 -5.523438 1.6875 -6.765625 L 1.6875 -27.046875 C 1.6875 -28.285156 1.988281 -29.421875 2.59375 -30.453125 C 3.207031 -31.484375 4.023438 -32.300781 5.046875 -32.90625 C 6.078125 -33.507812 7.210938 -33.8125 8.453125 -33.8125 Z M 35.5 -33.8125 "/></g></g></g><g fill="#c41e3a" fill-opacity="1"><g transform="translate(38.309424, 42.045716)"><g><path d="M 28.734375 0 L 1.6875 0 L 1.6875 -33.8125 L 28.734375 -33.8125 C 29.972656 -33.8125 31.109375 -33.507812 32.140625 -32.90625 C 33.171875 -32.300781 33.988281 -31.484375 34.59375 -30.453125 C 35.195312 -29.421875 35.5 -28.285156 35.5 -27.046875 L 35.5 -6.765625 C 35.5 -5.523438 35.195312 -4.390625 34.59375 -3.359375 C 33.988281 -2.328125 33.171875 -1.507812 32.140625 -0.90625 C 31.109375 -0.300781 29.972656 0 28.734375 0 Z M 8.453125 -27.046875 L 8.453125 -6.765625 L 28.734375 -6.765625 L 28.734375 -27.046875 Z M 8.453125 -27.046875 "/></g></g></g><g fill="#c41e3a" fill-opacity="1"><g transform="translate(75.490545, 42.045716)"><g><path d="M 35.5 0 L 1.6875 0 L 1.6875 -6.765625 L 15.21875 -6.765625 L 15.21875 -27.046875 L 1.6875 -27.046875 L 1.6875 -33.8125 L 35.5 -33.8125 L 35.5 -27.046875 L 21.984375 -27.046875 L 21.984375 -6.765625 L 35.5 -6.765625 Z M 35.5 0 "/></g></g></g><g fill="#c41e3a" fill-opacity="1"><g transform="translate(112.671666, 42.045716)"><g/></g></g><g fill="#c41e3a" fill-opacity="1"><g transform="translate(131.262226, 42.045716)"><g><path d="M 8.453125 -33.8125 L 28.734375 -33.8125 C 29.972656 -33.8125 31.109375 -33.507812 32.140625 -32.90625 C 33.171875 -32.300781 33.988281 -31.484375 34.59375 -30.453125 C 35.195312 -29.421875 35.5 -28.285156 35.5 -27.046875 L 35.5 0 L 28.734375 0 L 28.734375 -27.046875 L 21.984375 -27.046875 L 21.984375 0 L 15.21875 0 L 15.21875 -27.046875 L 8.453125 -27.046875 L 8.453125 0 L 1.6875 0 L 1.6875 -27.046875 C 1.6875 -28.285156 1.988281 -29.421875 2.59375 -30.453125 C 3.207031 -31.484375 4.023438 -32.300781 5.046875 -32.90625 C 6.078125 -33.507812 7.210938 -33.8125 8.453125 -33.8125 Z M 8.453125 -33.8125 "/></g></g></g><g fill="#c41e3a" fill-opacity="1"><g transform="translate(168.443347, 42.045716)"><g><path d="M 8.453125 -33.8125 L 28.734375 -33.8125 C 29.972656 -33.8125 31.109375 -33.507812 32.140625 -32.90625 C 33.171875 -32.300781 33.988281 -31.484375 34.59375 -30.453125 C 35.195312 -29.421875 35.5 -28.285156 35.5 -27.046875 L 35.5 0 L 28.734375 0 L 28.734375 -13.53125 L 8.453125 -13.53125 L 8.453125 0 L 1.6875 0 L 1.6875 -27.046875 C 1.6875 -28.285156 1.988281 -29.421875 2.59375 -30.453125 C 3.207031 -31.484375 4.023438 -32.300781 5.046875 -32.90625 C 6.078125 -33.507812 7.210938 -33.8125 8.453125 -33.8125 Z M 8.453125 -27.046875 L 8.453125 -20.28125 L 28.734375 -20.28125 L 28.734375 -27.046875 Z M 8.453125 -27.046875 "/></g></g></g><g fill="#c41e3a" fill-opacity="1"><g transform="translate(205.624467, 42.045716)"><g><path d="M 35.5 0 L 8.453125 0 C 7.210938 0 6.078125 -0.300781 5.046875 -0.90625 C 4.023438 -1.507812 3.207031 -2.328125 2.59375 -3.359375 C 1.988281 -4.390625 1.6875 -5.523438 1.6875 -6.765625 L 1.6875 -27.046875 C 1.6875 -28.285156 1.988281 -29.421875 2.59375 -30.453125 C 3.207031 -31.484375 4.023438 -32.300781 5.046875 -32.90625 C 6.078125 -33.507812 7.210938 -33.8125 8.453125 -33.8125 L 35.5 -33.8125 L 35.5 -27.046875 L 8.453125 -27.046875 L 8.453125 -6.765625 L 35.5 -6.765625 Z M 35.5 0 "/></g></g></g><g fill="#c41e3a" fill-opacity="1"><g transform="translate(242.805588, 42.045716)"><g><path d="M 35.5 -33.8125 L 35.5 -27.046875 L 8.453125 -27.046875 L 8.453125 -20.28125 L 28.734375 -20.28125 C 29.972656 -20.28125 31.109375 -19.976562 32.140625 -19.375 C 33.171875 -18.769531 33.988281 -17.953125 34.59375 -16.921875 C 35.195312 -15.898438 35.5 -14.769531 35.5 -13.53125 L 35.5 -6.765625 C 35.5 -5.523438 35.195312 -4.390625 34.59375 -3.359375 C 33.988281 -2.328125 33.171875 -1.507812 32.140625 -0.90625 C 31.109375 -0.300781 29.972656 0 28.734375 0 L 1.6875 0 L 1.6875 -6.765625 L 28.734375 -6.765625 L 28.734375 -13.53125 L 8.453125 -13.53125 C 7.210938 -13.53125 6.078125 -13.832031 5.046875 -14.4375 C 4.023438 -15.039062 3.207031 -15.851562 2.59375 -16.875 C 1.988281 -17.90625 1.6875 -19.039062 1.6875 -20.28125 L 1.6875 -27.046875 C 1.6875 -28.285156 1.988281 -29.421875 2.59375 -30.453125 C 3.207031 -31.484375 4.023438 -32.300781 5.046875 -32.90625 C 6.078125 -33.507812 7.210938 -33.8125 8.453125 -33.8125 Z M 35.5 -33.8125 "/></g></g></g></g></g><g clip-path="url(#1a3dd7e114)"><g clip-path="url(#f3a67dfa49)"><g transform="matrix(1, 0, 0, 1, 316, 7)"><g clip-path="url(#6890033ed9)"><g clip-path="url(#3d3d2917c0)"><g clip-path="url(#e334866f7a)"><path fill="#ffffff" d="M 0.648438 0.5 L 18.832031 0.5 L 18.832031 18.6875 L 0.648438 18.6875 Z M 0.648438 0.5 " fill-opacity="1" fill-rule="nonzero"/></g></g></g></g></g></g></svg>